# xmcd CD database file
#
# Track frame offsets:
#	150
#	26536
#	49047
#	68502
#	88295
#	114746
#	130193
#	158287
#	180747
#	201864
#	222338
#	245636
#
# Disc length: 3573 seconds
#
# Revision: 0
# Processed by: cddbd v1.5.2PL0 Copyright (c) Steve Scherf et al.
# Submitted via: CDex 1.51
#
DISCID=a40df30c
DTITLE=George Carlaw - Solace
DYEAR=2011
DGENRE=New Age
TTITLE0=Reflecting Inward
TTITLE1=Expand
TTITLE2=Raindrops
TTITLE3=New Day
TTITLE4=Gift Of Hope
TTITLE5=The Clearing
TTITLE6=Rise
TTITLE7=Breath and Balance
TTITLE8=Solace
TTITLE9=Daydreams
TTITLE10=Turning Point
TTITLE11=Awakening
EXTD=YEAR: 2011
EXTT0=
EXTT1=
EXTT2=
EXTT3=
EXTT4=
EXTT5=
EXTT6=
EXTT7=
EXTT8=
EXTT9=
EXTT10=
EXTT11=
PLAYORDER=
